# xmcd
#
# Track frame offsets: 
#        150
#        11969
#        26491
#        40576
#        58153
#        82832
#        110694
#        124910
#
# Disc length: 1830 seconds
#
# Revision: 0
# Processed by: cddbd v1.5.2PL0 Copyright (c) Steve Scherf et al.
# Submitted via: ExactAudioCopy v0.95b4
#
DISCID=62072408
DTITLE=Los Sidetrackers - EP
DYEAR=2006
DGENRE=Blues
TTITLE0=Perdiendo el Rumbo
TTITLE1=Caldonia
TTITLE2=Sidetrack
TTITLE3=May I Have A Talk With You
TTITLE4=Route 66
TTITLE5=Lenny
TTITLE6=Noche de Perros
TTITLE7=M.H. Stomp
EXTD=
EXTT0=
EXTT1=
EXTT2=
EXTT3=
EXTT4=
EXTT5=
EXTT6=
EXTT7=
PLAYORDER=
